<svg xmlns="http://www.w3.org/2000/svg" width="160mm" height="160mm" viewBox="0 0 160 160">
  <title>囍字团花</title>
  <g fill="none" stroke="#b3202a" stroke-width="0.4" stroke-linejoin="round" stroke-linecap="round">
    <circle cx="80" cy="80" r="78"/>
    <circle cx="80" cy="80" r="70"/>
    <circle cx="14" cy="20" r="6"/>
    <circle cx="14" cy="140" r="6"/>
    <circle cx="146" cy="20" r="6"/>
    <circle cx="146" cy="140" r="6"/>
    <rect x="26" y="34" width="56" height="5"/>
    <rect x="51.5" y="26" width="5" height="21"/>
    <rect x="34" y="47" width="40" height="4"/>
    <rect x="38" y="56" width="32" height="18"/>
    <rect x="34" y="80" width="40" height="4"/>
    <rect x="28" y="89" width="52" height="4"/>
    <rect x="38" y="98" width="32" height="20"/>
    <rect x="51.5" y="72" width="5" height="22"/>
    <rect x="82" y="34" width="56" height="5"/>
    <rect x="107.5" y="26" width="5" height="21"/>
    <rect x="90" y="47" width="40" height="4"/>
    <rect x="94" y="56" width="32" height="18"/>
    <rect x="90" y="80" width="40" height="4"/>
    <rect x="84" y="89" width="52" height="4"/>
    <rect x="94" y="98" width="32" height="20"/>
    <rect x="107.5" y="72" width="5" height="22"/>
<rect x="79.5" y="72" width="5" height="50"/>
  </g>
</svg>
